<?xml version="1.0" standalone="no"?>
<!DOCTYPE svg PUBLIC "-//W3C//DTD SVG 20010904//EN"
 "http://www.w3.org/TR/2001/REC-SVG-20010904/DTD/svg10.dtd">
<svg version="1.0" xmlns="http://www.w3.org/2000/svg"
 width="1000.000000pt" height="1000.000000pt" viewBox="0 0 1000.000000 1000.000000"
 preserveAspectRatio="xMidYMid meet">

<g transform="translate(0.000000,1000.000000) scale(0.100000,-0.100000)"
fill="#000000" stroke="none">
<path d="M2585 9617 c-3 -6 -4 -181 -3 -387 l3 -375 35 -2 c358 -24 641 -272
715 -626 13 -61 15 -216 15 -1049 0 -645 3 -978 10 -978 6 0 10 6 10 14 0 28
112 231 181 329 86 120 231 268 347 355 46 34 85 62 87 62 3 0 30 16 62 37 31
20 93 53 137 73 463 213 993 209 1445 -11 124 -61 155 -80 283 -177 199 -150
361 -351 475 -587 l48 -100 6 1005 c3 651 9 1019 16 1045 20 77 56 170 86 220
127 217 355 365 592 384 l70 6 3 388 2 387 -2310 0 c-1843 0 -2312 -3 -2315
-13z"/>
<path d="M4692 7000 c-73 -11 -203 -40 -227 -50 -11 -5 -42 -16 -70 -25 -303
-97 -639 -398 -787 -705 -74 -154 -109 -266 -134 -429 -21 -141 -20 -1451 1
-1584 34 -213 99 -383 212 -560 175 -275 466 -496 768 -585 153 -45 186 -51
319 -63 428 -36 842 114 1141 415 155 156 267 331 335 526 7 19 16 44 20 55
12 27 38 146 50 225 13 87 13 1472 0 1565 -24 162 -60 277 -141 440 -190 386
-549 664 -978 756 -107 23 -413 35 -509 19z m468 -195 c246 -55 451 -166 625
-340 195 -194 299 -396 351 -685 10 -53 14 -171 14 -402 0 -317 -1 -328 -22
-377 -13 -28 -27 -51 -33 -51 -17 1 -178 214 -213 282 -47 92 -56 160 -42 320
21 234 23 284 12 273 -12 -12 -69 -241 -87 -350 -16 -97 -1 -202 40 -290 22
-46 187 -264 255 -338 37 -39 42 -92 33 -349 -8 -240 -9 -245 -36 -290 -34
-58 -87 -103 -146 -123 -58 -19 -99 -19 -188 2 -68 15 -74 15 -118 -1 -66 -26
-105 -81 -105 -151 0 -45 6 -60 50 -124 53 -77 58 -92 37 -110 -11 -8 -17 -3
-30 24 -22 47 -58 63 -90 42 -23 -15 -26 -14 -46 9 -11 13 -29 24 -39 24 -20
0 -54 -28 -78 -66 l-17 -24 -37 40 c-20 22 -45 40 -54 40 -19 0 -62 -43 -72
-72 -8 -25 -18 -20 -46 22 -44 65 -92 54 -137 -30 -18 -33 -38 -60 -44 -60 -7
0 -30 29 -50 65 -35 60 -40 65 -72 65 -29 0 -39 -6 -61 -40 -15 -22 -28 -40
-30 -40 -2 0 -16 18 -30 40 -14 22 -35 42 -46 46 -23 7 -69 -21 -75 -47 -8
-29 -25 -23 -67 21 -44 47 -58 49 -92 15 -23 -24 -26 -24 -49 -9 -33 22 -60
10 -86 -36 -18 -31 -25 -37 -36 -29 -21 18 -15 38 31 99 75 98 79 171 16 244
-44 50 -102 63 -184 42 -97 -24 -143 -21 -214 15 -101 50 -143 119 -148 244
-1 44 -6 155 -9 247 -8 204 -11 196 145 388 60 74 123 160 139 190 66 126 70
242 15 460 -19 80 -38 155 -41 168 -3 12 -10 22 -16 22 -6 0 -8 -24 -3 -67 34
-360 33 -398 -20 -512 -19 -41 -38 -78 -42 -81 -4 -3 -43 -50 -86 -105 -43
-55 -82 -101 -86 -103 -10 -4 -29 28 -47 78 -16 45 -18 653 -2 732 43 208 74
302 142 422 189 336 496 557 872 627 125 23 378 20 495 -6z m-680 -3142 c0
-39 -71 -133 -101 -133 -13 0 -10 98 4 150 20 76 26 79 64 35 18 -21 33 -45
33 -52z m925 35 c16 -55 21 -168 7 -168 -25 0 -102 99 -102 131 0 13 61 89 71
89 5 0 15 -23 24 -52z m-774 -6 c23 -42 24 -50 13 -72 -8 -14 -14 -41 -14 -61
0 -24 -5 -39 -16 -43 -31 -12 -82 -6 -105 13 -22 18 -23 22 -12 51 18 48 87
160 98 160 6 0 22 -21 36 -48z m156 36 c6 -7 29 -48 52 -90 l42 -77 -26 -27
c-24 -24 -32 -26 -92 -22 -71 4 -99 24 -89 64 7 28 87 164 96 164 4 0 12 -6
17 -12z m287 -65 c51 -88 55 -104 26 -133 -15 -15 -33 -20 -78 -20 -65 0 -102
19 -102 52 0 19 57 133 83 166 17 21 25 14 71 -65z m167 20 c55 -95 62 -111
55 -137 -6 -25 -31 -36 -81 -36 -41 0 -59 14 -52 40 3 12 -1 37 -10 57 -12 29
-12 42 -3 62 18 40 39 71 49 71 5 0 24 -26 42 -57z m-922 24 c7 -13 11 -50 9
-87 l-3 -65 -32 -3 c-40 -4 -73 13 -73 38 0 21 67 140 79 140 4 0 13 -10 20
-23z m1220 -41 c17 -29 31 -63 31 -74 0 -27 -32 -44 -73 -40 -32 3 -32 3 -35
66 -2 46 2 71 13 88 20 31 26 27 64 -40z m-1364 -58 c-8 -50 -10 -52 -25 -43
-7 4 -9 19 -4 38 8 39 12 47 25 47 7 0 8 -15 4 -42z m1465 16 c14 -37 12 -64
-5 -64 -9 0 -15 9 -15 23 0 12 -3 32 -6 45 -9 31 14 28 26 -4z"/>
<path d="M4055 4955 c-55 -12 -120 -30 -145 -39 -51 -19 -129 -67 -155 -96
-18 -20 -18 -21 2 -43 39 -42 56 -91 63 -177 12 -161 82 -245 235 -286 66 -18
122 -17 225 2 47 9 106 20 132 24 67 12 129 42 178 86 46 41 90 122 90 164 0
36 28 117 56 161 45 73 127 109 199 89 94 -26 149 -102 179 -248 25 -120 99
-203 209 -236 109 -32 281 -58 342 -53 190 18 305 128 305 291 0 70 25 144 62
183 21 22 21 23 3 43 -53 59 -174 110 -339 144 -94 20 -163 10 -266 -37 -60
-27 -103 -43 -246 -91 -54 -18 -99 -14 -108 10 -9 23 2 37 49 69 73 49 62 55
-47 25 -98 -27 -265 -27 -363 0 -113 31 -124 24 -44 -28 60 -39 64 -70 12 -85
-25 -8 -51 -2 -140 29 -59 20 -139 52 -178 69 -67 31 -157 56 -193 54 -9 0
-62 -11 -117 -24z"/>
<path d="M4782 4575 c-7 -14 -12 -30 -12 -35 0 -5 -13 -38 -28 -72 -61 -134
-85 -211 -85 -268 1 -85 26 -122 132 -198 48 -34 70 -39 88 -21 9 9 20 9 43
-1 29 -12 34 -10 93 30 72 48 105 90 119 152 13 59 6 89 -69 275 -49 124 -68
161 -77 153 -7 -5 -30 -46 -50 -90 -21 -44 -42 -77 -47 -74 -5 3 -9 9 -9 15 0
16 -72 159 -79 159 -4 0 -13 -11 -19 -25z"/>
<path d="M2585 6047 c-3 -7 -4 -138 -3 -292 l3 -280 325 0 325 0 2 65 c4 120
25 304 45 395 11 50 20 97 21 105 2 13 -45 15 -356 18 -283 2 -359 0 -362 -11z"/>
<path d="M6487 6053 c-3 -5 5 -49 18 -99 21 -84 43 -276 48 -419 l2 -60 325 0
325 0 0 290 0 290 -357 3 c-196 1 -359 -1 -361 -5z"/>
<path d="M6555 5277 c-3 -7 -4 -138 -3 -292 l3 -279 490 -2 c270 -1 505 0 523
3 l32 5 0 283 0 283 -22 6 c-13 3 -247 6 -521 6 -392 0 -499 -3 -502 -13z"/>
<path d="M2190 4995 c0 -221 3 -285 13 -285 6 0 242 0 522 -1 l510 0 3 285 2
286 -525 0 -525 0 0 -285z"/>
<path d="M2584 4506 c-2 -6 -3 -137 -2 -291 l3 -280 364 -3 364 -2 -6 27 c-3
16 -15 69 -25 118 -19 85 -40 268 -45 382 l-2 51 -323 5 c-233 3 -325 1 -328
-7z"/>
<path d="M6557 4513 c-4 -3 -7 -40 -7 -82 0 -107 -27 -322 -51 -410 -11 -41
-16 -78 -11 -83 4 -4 168 -7 363 -6 l354 3 0 290 0 290 -321 3 c-176 1 -323
-1 -327 -5z"/>
<path d="M3350 2818 c0 -1050 0 -1039 -44 -1166 -100 -282 -357 -484 -651
-511 l-70 -6 0 -385 0 -385 2313 -3 2312 -2 -2 387 -3 388 -65 6 c-301 29
-556 229 -655 514 -44 128 -45 140 -45 1175 l-1 985 -52 -105 c-171 -347 -435
-609 -772 -770 -222 -106 -402 -148 -665 -157 -312 -10 -596 54 -847 193 -256
141 -475 351 -623 597 -31 51 -69 121 -85 157 -16 36 -33 69 -37 75 -4 5 -8
-439 -8 -987z"/>
</g>
</svg>
