<?xml version="1.0" standalone="no"?>
<!DOCTYPE svg PUBLIC "-//W3C//DTD SVG 20010904//EN"
 "http://www.w3.org/TR/2001/REC-SVG-20010904/DTD/svg10.dtd">
<svg version="1.0" xmlns="http://www.w3.org/2000/svg"
 width="250.000000pt" height="264.000000pt" viewBox="0 0 250.000000 264.000000"
 preserveAspectRatio="xMidYMid meet">

<g transform="translate(0.000000,264.000000) scale(0.100000,-0.100000)"
fill="#000000" stroke="none">
<path d="M1296 2589 c-23 -108 -26 -133 -16 -143 5 -5 10 -40 10 -77 l0 -66
-65 -6 c-80 -8 -87 -5 -109 40 -22 46 -28 38 -17 -20 9 -51 7 -57 -23 -57 -30
0 -121 -45 -167 -81 l-38 -30 -17 26 c-9 14 -15 27 -13 28 2 1 13 7 23 13 37
20 30 34 -17 34 -43 0 -137 41 -211 93 l-28 20 7 -24 c4 -13 22 -42 40 -64 39
-50 89 -124 98 -148 5 -13 13 -16 26 -12 41 13 28 -34 -26 -93 -7 -7 -20 -26
-30 -43 -19 -32 -23 -32 -92 -13 -21 6 -19 3 12 -27 l37 -34 -20 -74 c-11 -41
-20 -82 -20 -91 0 -23 -38 -38 -83 -32 -43 5 -54 17 -37 37 15 18 10 18 -26 5
-25 -10 -26 -9 -22 15 3 14 4 25 2 25 -2 0 -25 -13 -51 -29 -43 -26 -60 -29
-158 -35 -152 -8 -238 -17 -248 -26 -5 -4 24 -13 64 -20 40 -7 88 -19 108 -27
19 -8 63 -19 97 -24 34 -5 83 -19 110 -33 48 -23 134 -42 134 -29 0 4 -10 17
-22 30 -25 26 -19 40 10 24 12 -6 36 -11 54 -11 36 0 61 -12 57 -26 -5 -16 13
-129 21 -139 11 -14 1 -27 -30 -43 -21 -10 -21 -12 -4 -9 35 7 53 -10 94 -93
38 -76 39 -80 21 -90 -13 -7 -22 -7 -26 0 -11 17 -33 11 -29 -7 3 -12 -21 -45
-73 -98 -85 -88 -103 -114 -103 -146 0 -15 -5 -19 -15 -15 -12 4 -14 0 -9 -19
9 -35 -5 -31 -56 15 -25 22 -48 40 -52 40 -3 0 -11 -22 -18 -50 -6 -27 -18
-54 -26 -61 -8 -6 -14 -17 -14 -24 0 -14 -104 -222 -135 -270 -22 -34 -79
-107 -113 -143 -38 -43 -16 -36 30 9 23 23 57 48 73 56 61 29 91 47 127 75 20
16 76 47 125 69 48 22 102 47 120 55 17 8 43 14 58 14 l26 0 -36 65 c-33 59
-35 66 -21 80 12 13 20 14 36 5 21 -11 27 -7 162 124 36 34 43 37 65 27 37
-17 47 -14 31 11 -13 19 -12 24 4 40 10 10 20 18 23 18 2 0 34 -22 71 -50 37
-27 71 -50 75 -50 5 0 9 -9 9 -20 0 -11 -4 -20 -8 -20 -4 0 -9 -10 -9 -22 -1
-13 -7 -24 -13 -26 -5 -2 -10 -13 -10 -23 0 -11 -4 -17 -10 -14 -5 3 -10 -2
-10 -13 0 -11 -3 -41 -6 -68 l-7 -49 28 40 c16 22 32 58 37 80 5 22 16 55 24
73 14 29 20 33 42 28 15 -3 56 -11 91 -18 l63 -12 -4 -63 c-2 -35 0 -63 4 -63
11 0 -2 -53 -16 -63 -8 -5 -8 -9 1 -15 6 -4 14 -36 18 -72 l7 -65 -26 30 c-14
17 -25 25 -26 19 0 -18 40 -146 55 -174 12 -21 40 -137 61 -250 27 -147 39
-175 48 -114 4 22 15 77 26 124 11 47 25 116 30 153 6 38 17 87 25 110 8 23
15 53 15 66 l0 24 -25 -23 c-14 -13 -25 -29 -25 -37 0 -13 -19 -19 -21 -5 -1
4 -2 42 -3 85 -1 57 2 81 12 86 11 6 10 10 -2 20 -18 15 -21 62 -5 78 8 8 8
13 0 17 -6 4 -11 36 -11 72 0 61 2 65 27 75 40 15 78 8 76 -15 0 -10 8 -33 19
-50 l20 -31 -6 63 c-4 43 -2 62 6 62 6 0 40 14 75 31 l63 31 50 -49 c27 -26
50 -54 50 -61 0 -8 -13 -26 -28 -41 l-28 -28 38 -17 c21 -9 47 -16 57 -16 28
0 62 -20 133 -79 77 -64 281 -211 286 -206 3 2 -5 17 -17 33 -11 17 -36 61
-53 98 -44 92 -51 104 -60 104 -5 0 -8 7 -8 14 0 8 -15 29 -32 46 -22 21 -29
34 -20 37 18 7 16 17 -26 101 -21 42 -47 98 -57 125 -10 26 -21 47 -25 47 -4
0 -13 -19 -20 -43 -14 -43 -34 -67 -57 -67 -7 0 -13 6 -13 13 0 15 -39 55 -55
57 -18 2 -4 32 46 97 27 35 49 67 49 71 0 4 7 15 15 26 14 18 16 18 69 -5 31
-12 56 -26 56 -31 0 -4 19 -8 43 -8 l42 0 -25 20 c-14 11 -37 20 -51 20 -14 0
-29 3 -33 8 -4 4 -11 7 -14 8 -4 0 -15 4 -24 7 -10 4 -25 9 -33 12 -12 3 -14
14 -9 47 4 24 11 51 15 60 5 9 9 27 9 40 0 38 19 48 89 48 85 0 102 -10 65
-39 -35 -28 -31 -27 57 10 91 38 277 99 303 99 11 0 17 2 14 5 -6 6 -145 46
-173 49 -11 1 -27 6 -35 9 -43 19 -103 36 -110 32 -5 -3 -10 -1 -12 4 -1 5
-18 12 -37 16 l-34 7 7 -32 6 -33 -43 6 c-86 12 -92 18 -107 97 -7 39 -17 73
-22 76 -5 3 -1 15 9 27 10 11 13 18 8 15 -16 -10 -40 14 -62 59 -11 23 -30 57
-41 76 -19 30 -20 36 -7 54 19 26 54 36 62 17 3 -10 22 10 55 58 27 40 69 101
93 136 24 34 42 62 39 62 -3 0 -31 -16 -62 -34 -32 -19 -69 -38 -84 -41 -15
-4 -32 -13 -39 -21 -6 -8 -17 -14 -24 -14 -7 0 -26 -7 -41 -15 -16 -8 -37 -15
-46 -15 -20 0 -24 -15 -8 -25 15 -9 12 -25 -5 -25 -8 0 -15 -4 -15 -10 0 -29
-65 9 -143 82 -38 37 -39 40 -33 85 l7 48 -23 -45 c-27 -52 -38 -54 -148 -16
l-65 22 0 72 c-1 50 3 72 12 72 6 0 10 8 8 18 -35 139 -50 173 -59 131z m-22
-486 c-1 -49 -3 -99 -3 -113 -1 -22 -8 -27 -56 -38 -30 -7 -69 -21 -85 -30
l-30 -17 -42 45 c-23 25 -57 62 -77 82 -34 37 -34 38 -15 59 18 21 70 50 119
69 22 8 26 5 47 -37 l23 -46 3 49 c2 27 9 52 15 56 7 4 33 8 58 8 l46 0 -3
-87z m189 62 c30 -15 36 -23 31 -39 -6 -18 -5 -19 9 -7 14 11 25 9 73 -16 31
-15 61 -38 67 -51 10 -21 7 -27 -24 -50 -19 -15 -44 -37 -55 -49 -12 -13 -26
-23 -33 -23 -6 0 -11 -4 -11 -10 0 -5 5 -10 10 -10 6 0 10 -4 10 -9 0 -16 -27
-19 -51 -5 -61 35 -106 54 -131 54 -15 0 -30 5 -34 11 -11 18 7 198 21 212 18
18 74 15 118 -8z m-558 -173 c11 -9 44 -45 74 -79 l54 -63 -27 -40 c-15 -22
-32 -57 -39 -78 -12 -37 -13 -37 -63 -36 -29 1 -77 5 -108 8 l-57 8 7 36 c3
20 10 51 15 69 10 30 13 32 62 35 l52 3 -37 19 c-21 11 -38 24 -38 30 1 14 68
106 78 106 4 -1 16 -8 27 -18z m867 -99 l29 -52 -45 -22 c-51 -24 -53 -33 -6
-37 17 -1 29 2 26 7 -8 13 24 23 38 12 15 -13 40 -107 31 -121 -3 -5 -17 -10
-31 -10 -14 0 -33 -4 -43 -9 -11 -7 -39 -6 -79 2 -58 11 -62 13 -83 57 -13 25
-24 52 -25 60 -1 8 -5 24 -9 36 -5 15 0 25 17 36 13 8 43 34 67 57 57 53 75
51 113 -16z m-325 -29 c30 -19 29 -40 -4 -68 -24 -21 -26 -26 -14 -40 13 -15
12 -18 -7 -23 -31 -8 -28 -21 3 -15 14 2 25 9 25 14 0 6 6 8 14 5 8 -3 25 3
37 14 31 27 42 20 58 -34 13 -41 18 -46 35 -41 12 4 17 3 13 -2 -5 -5 -34 -10
-64 -10 -40 -1 -58 -6 -65 -18 -5 -9 -17 -16 -26 -16 -9 0 -24 -5 -32 -10 -11
-7 -5 -14 31 -29 26 -12 52 -27 58 -35 6 -8 27 -17 46 -20 19 -4 35 -11 35
-17 0 -17 -55 -111 -67 -116 -7 -3 -43 22 -80 56 -37 33 -69 59 -71 57 -6 -6
18 -47 53 -91 43 -53 70 -103 62 -111 -3 -4 -29 -8 -56 -9 -48 -2 -50 -1 -56
27 -4 16 -18 40 -31 53 -15 15 -24 36 -24 57 0 18 -7 41 -15 51 -13 18 -15 16
-36 -25 -15 -29 -22 -62 -23 -100 -1 -67 -12 -73 -76 -37 -34 19 -37 24 -29
46 5 13 9 36 9 51 0 15 9 41 20 57 30 45 25 48 -31 19 -33 -16 -54 -22 -58
-15 -4 6 -12 7 -21 1 -23 -14 -30 -12 -39 13 -25 66 -25 66 16 83 21 9 41 21
44 27 4 5 24 13 45 16 l39 7 -32 16 c-18 9 -50 19 -73 23 -34 6 -40 10 -40 32
0 30 34 88 56 97 9 3 25 -4 40 -19 14 -14 29 -25 34 -25 5 0 22 -14 39 -30
l30 -31 -15 38 c-9 21 -27 52 -40 70 -43 57 -26 79 68 90 41 5 50 3 46 -8 -6
-17 9 -49 22 -49 6 0 10 11 10 25 0 35 26 46 74 29 22 -8 51 -21 63 -30z
m-497 -291 c4 -4 13 -29 20 -56 7 -26 17 -50 22 -53 9 -6 -73 -94 -86 -94 -3
0 -23 -18 -43 -41 l-37 -41 -32 64 -33 63 27 24 27 24 -33 -5 c-34 -5 -35 -3
-46 62 -6 37 0 54 24 63 21 8 181 0 190 -10z m796 -28 c10 -8 35 -15 54 -15
20 0 41 -5 47 -11 11 -11 0 -93 -19 -142 -12 -30 -15 -31 -94 -11 -26 7 -28 6
-15 -9 7 -10 19 -17 26 -17 7 0 23 -8 36 -19 l22 -18 -21 -34 c-11 -19 -34
-47 -51 -63 l-31 -29 -75 77 c-41 43 -75 83 -75 89 0 5 10 24 23 41 29 38 67
127 67 155 0 18 6 21 43 21 24 0 52 -7 63 -15z m-576 -273 c19 -6 47 -14 61
-16 24 -5 25 -8 21 -61 -2 -30 1 -69 7 -87 8 -23 8 -33 0 -39 -6 -4 -9 -11 -5
-17 3 -5 0 -15 -8 -21 -16 -14 -116 3 -131 22 -5 7 -28 18 -50 25 -23 6 -54
25 -69 41 l-28 30 21 30 c26 36 23 35 61 16 34 -18 36 -14 14 20 -15 23 -14
26 12 60 24 31 29 34 43 22 9 -8 32 -19 51 -25z m332 -27 c13 -19 31 -37 41
-41 9 -3 17 -9 17 -14 0 -5 12 -22 26 -39 28 -33 26 -57 -3 -68 -10 -3 -29
-15 -42 -25 -13 -10 -36 -18 -50 -18 -14 0 -40 -2 -57 -6 -19 -3 -34 -1 -38 5
-4 6 -9 57 -11 114 l-3 104 41 10 c23 5 45 11 49 12 4 0 18 -15 30 -34z"/>
<path d="M1287 1818 c-2 -7 -1 -22 4 -33 6 -16 8 -14 8 13 1 33 -4 41 -12 20z"/>
</g>
</svg>
