<?xml version="1.0" standalone="no"?>
<!DOCTYPE svg PUBLIC "-//W3C//DTD SVG 20010904//EN"
 "http://www.w3.org/TR/2001/REC-SVG-20010904/DTD/svg10.dtd">
<svg version="1.0" xmlns="http://www.w3.org/2000/svg"
 width="2000.000000pt" height="2000.000000pt" viewBox="0 0 2000.000000 2000.000000"
 preserveAspectRatio="xMidYMid meet">

<g transform="translate(0.000000,2000.000000) scale(0.100000,-0.100000)"
fill="#000000" stroke="none">
<path d="M17724 17767 c-36 -31 -212 -161 -489 -364 -279 -203 -1167 -831
-1997 -1411 -639 -447 -699 -488 -1358 -945 -195 -135 -375 -260 -400 -277
-98 -69 -654 -451 -800 -551 -85 -58 -249 -171 -365 -250 -115 -80 -237 -163
-270 -185 -33 -22 -159 -108 -280 -191 -923 -631 -1936 -1300 -2230 -1472
-186 -109 -239 -122 -276 -71 -29 38 -41 163 -29 293 6 60 9 112 6 114 -4 5
-298 -216 -840 -632 -258 -198 -854 -657 -941 -724 -27 -22 -309 -240 -625
-485 -316 -246 -582 -452 -590 -459 -8 -7 -60 -47 -115 -89 -55 -42 -208 -160
-340 -262 -594 -461 -1016 -780 -1305 -990 -203 -147 -278 -229 -351 -381 -60
-127 -80 -217 -80 -375 0 -134 6 -185 35 -290 86 -320 300 -607 526 -705 38
-17 67 -20 195 -19 82 0 219 8 304 18 199 24 411 18 519 -13 143 -42 275 -115
405 -225 84 -71 101 -108 95 -200 -8 -126 -93 -269 -294 -498 -184 -208 -612
-585 -930 -818 l-61 -44 115 -33 c438 -126 682 -401 709 -801 3 -51 10 -91 14
-90 15 6 285 315 500 573 683 820 1098 1448 1174 1780 18 77 19 177 1 218 -20
49 -65 81 -137 99 -35 9 -95 24 -134 34 -378 93 -715 273 -931 496 -228 235
-334 495 -334 815 0 208 32 344 125 539 111 230 274 408 506 548 37 22 155 95
261 162 106 67 225 140 263 163 148 90 293 178 370 225 88 54 168 103 415 253
380 231 1003 611 1250 764 146 90 306 188 356 219 197 120 1240 771 1284 801
14 9 248 159 520 332 447 284 751 479 1270 817 205 134 1109 738 1290 863 69
47 175 120 235 161 61 42 142 98 180 125 39 27 102 71 140 98 379 260 1213
871 1596 1169 869 677 1469 1241 1736 1631 118 173 184 328 185 437 0 51 -19
136 -32 136 -3 0 -24 -15 -46 -33z"/>
<path d="M17399 16651 c-509 -409 -1205 -960 -1485 -1176 -50 -38 -206 -159
-345 -267 -750 -581 -1544 -1178 -2174 -1634 -605 -438 -1323 -917 -1683
-1123 -167 -96 -394 -210 -469 -237 -58 -21 -60 -25 -42 -104 19 -84 49 -344
55 -485 7 -160 -6 -315 -36 -425 -11 -41 -21 -82 -23 -90 -3 -22 151 -25 277
-5 399 63 1179 327 2131 721 534 221 1317 565 1755 771 47 22 159 75 250 118
240 112 774 383 924 467 71 40 148 90 172 111 49 43 109 134 158 242 33 71 46
102 109 265 36 92 117 354 177 565 27 99 56 203 64 230 42 147 159 645 265
1130 64 292 234 1166 228 1171 -1 1 -140 -109 -308 -245z"/>
<path d="M16954 13328 c-146 -154 -592 -417 -1128 -665 -77 -36 -163 -75 -191
-88 -64 -30 -283 -126 -400 -175 -49 -21 -151 -63 -225 -95 -187 -79 -779
-315 -1050 -420 -124 -47 -270 -103 -325 -125 -55 -21 -293 -111 -530 -200
-236 -89 -565 -213 -730 -275 -705 -266 -1065 -411 -1192 -481 -76 -42 -176
-132 -193 -174 -19 -45 -1 -75 57 -101 107 -47 131 -62 154 -92 21 -28 24 -42
23 -107 -1 -80 -9 -106 -94 -330 -37 -98 -53 -155 -57 -207 l-6 -73 46 0 c69
0 634 62 867 95 521 74 819 122 1095 175 617 118 951 193 1435 322 207 55 238
64 500 143 227 70 339 107 590 197 l195 70 74 76 c268 277 522 656 765 1140
299 595 471 1183 400 1362 -24 59 -44 66 -80 28z"/>
<path d="M10875 12051 c-231 -112 -306 -158 -946 -581 -552 -364 -564 -372
-838 -538 -273 -166 -578 -339 -868 -493 -140 -75 -508 -323 -575 -389 -84
-81 -80 -124 17 -167 33 -14 70 -17 205 -17 195 1 409 27 760 95 508 98 1260
295 1750 458 331 110 389 135 436 185 115 124 190 371 215 714 11 154 6 615
-9 744 l-7 58 -140 -69z"/>
<path d="M16201 10626 c-18 -22 -244 -130 -396 -189 -262 -103 -673 -232
-1115 -350 -210 -57 -583 -152 -655 -167 -22 -4 -78 -17 -125 -28 -175 -41
-500 -112 -625 -137 -71 -14 -148 -30 -170 -35 -22 -5 -92 -19 -155 -30 -63
-12 -133 -25 -155 -30 -242 -53 -930 -155 -1256 -185 -296 -28 -529 -12 -561
38 -6 8 -10 9 -15 1 -5 -6 -50 -76 -101 -155 -51 -79 -122 -189 -158 -244 -62
-95 -64 -100 -42 -103 101 -13 271 -46 324 -64 36 -12 79 -34 96 -49 25 -25
29 -33 23 -61 -17 -79 -155 -294 -322 -502 -34 -44 -63 -85 -63 -92 0 -33 188
-54 490 -54 493 0 1436 57 2650 160 124 11 263 22 308 26 73 6 90 11 135 42
426 289 1104 1048 1705 1909 140 201 195 280 203 296 12 20 -3 23 -20 3z"/>
<path d="M11090 10417 c-3 -3 -113 -28 -245 -56 -132 -29 -289 -63 -350 -76
-60 -14 -153 -33 -205 -44 -52 -11 -171 -36 -265 -56 -461 -97 -1238 -254
-1485 -300 -41 -7 -97 -19 -125 -25 -41 -8 -333 -63 -460 -85 -378 -68 -587
-100 -770 -120 -106 -12 -163 -23 -193 -38 -63 -30 -242 -148 -320 -211 -103
-81 -208 -204 -190 -221 12 -12 519 -108 789 -150 671 -103 1182 -145 1759
-145 447 1 749 23 1035 79 245 47 486 121 525 160 62 62 183 305 278 556 129
342 257 766 222 732z"/>
<path d="M6385 8951 c-122 -20 -216 -60 -258 -110 -59 -70 -94 -233 -82 -383
7 -92 37 -234 51 -247 8 -7 324 -62 549 -96 44 -7 213 -33 375 -58 389 -61
863 -127 1190 -166 635 -77 879 -95 1275 -95 347 -1 363 0 445 22 272 75 529
283 725 587 82 126 207 396 192 412 -2 1 -26 -4 -53 -12 -140 -41 -409 -85
-654 -107 -207 -18 -761 -16 -1045 5 -226 17 -282 22 -560 53 -305 33 -300 33
-735 90 -710 93 -835 105 -1120 109 -135 2 -267 0 -295 -4z"/>
<path d="M14470 8230 c-125 -73 -752 -192 -1235 -235 -38 -3 -110 -10 -160
-16 -235 -24 -696 -52 -1305 -79 -297 -13 -1188 -6 -1231 10 -36 13 -38 12
-160 -60 -120 -71 -410 -250 -477 -295 l-33 -23 103 -11 c301 -35 483 -78 541
-129 60 -53 -45 -131 -272 -203 l-103 -32 32 -13 c133 -56 684 -227 890 -275
485 -115 807 -159 1168 -159 268 0 459 27 667 95 100 33 333 146 445 217 383
242 800 667 1113 1134 56 85 60 100 17 74z"/>
<path d="M6243 7979 c-24 -7 -39 -21 -53 -49 -47 -92 -7 -203 117 -326 128
-127 388 -286 618 -379 122 -49 151 -52 200 -23 36 21 52 23 150 22 150 -1
361 -45 765 -159 440 -124 730 -186 880 -188 82 -1 95 3 380 97 574 192 820
292 820 336 0 17 -161 57 -610 150 -25 5 -99 21 -165 35 -164 35 -945 192
-1069 215 -404 74 -523 96 -661 120 -244 42 -292 50 -385 65 -537 82 -889 112
-987 84z"/>
<path d="M7275 7150 c-4 -6 23 -42 59 -81 90 -95 133 -162 152 -239 14 -60 14
-70 -1 -130 -9 -36 -19 -75 -22 -88 -27 -111 410 -374 882 -530 110 -37 110
-37 280 -36 139 0 187 4 265 23 241 56 521 177 633 272 54 47 61 75 20 85
-133 30 -367 110 -1058 359 -568 206 -958 333 -1103 361 -88 17 -99 17 -107 4z"/>
<path d="M9876 6960 c-10 -11 -46 -28 -80 -39 -79 -26 -346 -93 -460 -116
l-90 -18 35 -16 c18 -8 48 -20 64 -27 274 -112 475 -209 543 -263 79 -63 71
-97 -42 -170 -64 -42 -304 -156 -378 -180 -21 -7 -38 -16 -38 -21 0 -13 312
-192 516 -297 610 -313 1134 -473 1552 -473 202 0 348 29 555 111 390 155 818
453 1222 852 148 147 157 158 125 152 -216 -38 -778 9 -1395 116 -66 11 -147
25 -180 30 -33 5 -94 16 -135 24 -41 8 -127 24 -190 35 -171 32 -678 133 -900
180 -107 23 -217 45 -245 50 -27 5 -101 20 -162 34 -103 23 -281 57 -293 55
-3 0 -13 -9 -24 -19z"/>
<path d="M7383 6408 c-21 -28 -45 -62 -53 -74 -14 -21 -137 -191 -189 -261
l-24 -31 24 -39 c84 -138 239 -314 317 -359 l44 -26 306 5 c317 4 373 10 575
58 48 12 87 25 87 29 0 21 -215 182 -605 451 -265 184 -435 299 -440 299 -2 0
-21 -23 -42 -52z"/>
<path d="M9100 5980 c-101 -32 -238 -50 -391 -50 l-148 0 26 -62 c34 -83 43
-194 18 -231 -28 -44 -88 -65 -220 -78 -66 -6 -128 -15 -137 -21 -78 -40 90
-174 427 -340 421 -208 973 -394 1415 -477 192 -37 269 -43 415 -36 127 6 205
12 604 46 68 6 133 14 144 18 17 6 -27 37 -229 163 -351 218 -1025 625 -1204
726 -19 11 -78 44 -130 74 -225 131 -512 288 -523 287 -7 -1 -37 -9 -67 -19z"/>
<path d="M6923 5732 c-269 -269 -369 -427 -305 -485 61 -56 367 -108 742 -127
312 -16 461 -17 458 -3 -2 6 -30 40 -63 75 -33 35 -128 135 -210 223 -286 307
-448 475 -456 475 -5 0 -79 -71 -166 -158z"/>
<path d="M5068 4926 c-101 -61 -499 -395 -729 -614 -99 -94 -122 -102 -279
-102 -108 0 -171 18 -280 81 -120 68 -194 96 -307 115 -119 19 -211 14 -389
-22 -154 -31 -210 -52 -290 -109 -169 -121 -331 -360 -458 -678 -58 -144 -136
-380 -136 -411 0 -12 37 17 113 88 376 351 618 486 877 486 163 0 297 -48 468
-166 204 -142 289 -267 328 -484 36 -201 -11 -504 -115 -744 l-21 -49 41 6
c86 11 201 117 288 264 49 83 76 164 90 266 18 128 13 202 -35 497 -6 32 0 43
59 115 92 114 295 316 572 570 314 287 498 469 563 557 62 83 62 92 10 185
-66 117 -161 183 -262 183 -41 0 -64 -7 -108 -34z"/>
<path d="M3006 3575 c-90 -19 -238 -92 -313 -154 -104 -87 -178 -202 -222
-345 -28 -92 -29 -262 -2 -358 71 -250 255 -427 517 -499 282 -78 611 49 778
299 186 280 143 643 -103 873 -138 130 -279 188 -471 195 -76 2 -139 -1 -184
-11z"/>
</g>
</svg>
