<?xml version="1.0" standalone="no"?>
<!DOCTYPE svg PUBLIC "-//W3C//DTD SVG 20010904//EN"
 "http://www.w3.org/TR/2001/REC-SVG-20010904/DTD/svg10.dtd">
<svg version="1.0" xmlns="http://www.w3.org/2000/svg"
 width="420.000000pt" height="748.000000pt" viewBox="0 0 420.000000 748.000000"
 preserveAspectRatio="xMidYMid meet">

<g transform="translate(0.000000,748.000000) scale(0.100000,-0.100000)"
fill="#000000" stroke="none">
<path d="M1820 7348 c-227 -38 -499 -102 -680 -159 -110 -35 -269 -97 -288
-112 -10 -8 -12 -116 -12 -502 l1 -493 292 -200 c412 -282 566 -382 585 -382
9 1 63 37 120 81 l102 80 0 849 0 850 -32 -1 c-18 -1 -58 -6 -88 -11z"/>
<path d="M2247 7193 c-4 -91 -7 -473 -7 -849 l0 -683 103 -75 c56 -42 112 -79
124 -82 18 -5 109 53 430 271 224 153 416 285 426 293 16 14 17 51 17 513 l0
497 -77 32 c-145 61 -364 127 -588 179 -105 24 -370 71 -401 71 -20 0 -21 -6
-27 -167z"/>
<path d="M3610 6486 l0 -436 196 -130 c107 -72 202 -134 210 -137 12 -4 14 54
14 413 l-1 419 -167 122 c-92 67 -186 136 -209 153 l-43 32 0 -436z"/>
<path d="M360 6764 l-195 -146 -5 -417 c-3 -229 -4 -419 -2 -423 2 -4 95 54
208 129 l204 138 0 432 c0 238 -3 433 -7 433 -5 -1 -96 -66 -203 -146z"/>
<path d="M3339 5766 c-69 -50 -257 -185 -417 -301 l-292 -209 0 -154 0 -154
28 17 c15 10 158 107 318 215 160 109 305 205 323 214 l32 17 192 -134 c306
-214 338 -233 418 -252 39 -9 74 -13 77 -10 11 10 15 201 7 319 l-7 113 -241
179 c-132 98 -257 191 -276 205 l-36 26 -126 -91z"/>
<path d="M669 5814 c-30 -21 -159 -115 -288 -211 l-234 -175 5 -199 c3 -127 8
-203 15 -210 17 -17 106 7 183 48 36 20 161 103 278 185 117 82 219 151 227
154 7 3 162 -95 352 -224 l338 -230 3 151 c2 112 -1 154 -10 163 -15 14 -807
584 -813 584 -1 0 -27 -16 -56 -36z"/>
<path d="M1946 5360 c-64 -50 -120 -99 -126 -110 -5 -10 -10 -66 -10 -124 l0
-106 270 0 270 0 0 118 -1 117 -46 35 c-124 94 -219 160 -229 160 -7 0 -64
-41 -128 -90z"/>
<path d="M690 4976 c-80 -63 -145 -119 -145 -125 0 -13 643 -481 661 -481 17
0 295 260 289 270 -2 4 -77 56 -165 116 -88 60 -235 160 -326 222 -91 61 -166
112 -167 112 -1 0 -67 -52 -147 -114z"/>
<path d="M3020 4867 c-178 -122 -325 -226 -326 -232 -3 -12 259 -259 280 -263
15 -3 219 139 524 365 83 62 152 114 152 117 0 4 -275 217 -296 229 -5 3 -156
-94 -334 -216z"/>
<path d="M1810 4738 c-2 -125 1 -912 2 -913 2 -1 63 -50 137 -108 73 -59 138
-107 143 -107 5 0 65 51 134 112 l124 113 0 462 0 463 -270 0 -270 0 0 -22z"/>
<path d="M204 4632 l-51 -47 1 -70 c1 -38 3 -178 4 -310 l3 -240 97 -70 c53
-38 195 -140 315 -227 119 -87 245 -175 278 -197 l61 -40 77 56 c42 31 189
141 326 244 l250 188 -3 195 -3 195 -117 -88 c-106 -78 -186 -135 -219 -155
-8 -4 -198 117 -476 304 -255 170 -470 310 -478 310 -8 0 -37 -21 -65 -48z"/>
<path d="M3555 4446 c-193 -129 -403 -268 -467 -311 l-117 -77 -48 33 c-26 18
-101 73 -167 121 -65 48 -122 85 -127 82 -5 -3 -9 -89 -9 -192 l1 -187 322
-240 c177 -132 329 -240 337 -239 9 0 181 121 383 268 l367 268 0 308 0 307
-50 47 c-27 25 -55 46 -62 46 -8 0 -171 -105 -363 -234z"/>
<path d="M150 2737 l0 -913 189 -182 c104 -100 192 -182 195 -182 8 0 5 1858
-3 1892 -4 17 -29 44 -71 76 -126 95 -300 222 -305 222 -2 0 -5 -411 -5 -913z"/>
<path d="M3828 3503 l-188 -137 0 -960 0 -960 43 39 c23 22 111 107 195 190
l152 150 -1 860 c0 473 -4 881 -7 907 l-7 48 -187 -137z"/>
<path d="M2397 3500 l-157 -111 0 -175 0 -174 175 0 175 0 180 -147 180 -148
0 -978 c0 -559 4 -977 9 -975 5 2 90 92 190 201 l181 199 0 932 0 932 -377
274 c-207 151 -382 276 -388 278 -6 1 -82 -47 -168 -108z"/>
<path d="M1544 3553 c-70 -47 -432 -310 -601 -435 l-93 -69 0 -927 1 -927 179
-195 c98 -107 183 -196 189 -198 7 -2 10 267 11 830 0 458 3 897 7 976 l6 143
176 144 176 145 173 0 172 0 0 171 0 171 -29 27 c-48 45 -263 191 -282 191 -9
0 -48 -21 -85 -47z"/>
<path d="M1602 2678 c-86 -59 -92 -65 -87 -92 3 -16 5 -116 5 -222 0 -107 4
-194 8 -194 5 0 59 38 122 85 l113 85 236 -6 c130 -2 277 -7 327 -10 l91 -6
107 -85 c59 -47 109 -83 112 -80 3 3 2 104 -2 225 l-7 221 -99 70 -98 71 -368
0 -368 0 -92 -62z"/>
<path d="M1733 1898 l-201 -142 -6 -151 c-3 -82 -8 -359 -11 -615 l-6 -465
197 -160 c107 -88 200 -161 204 -163 5 -2 9 129 10 290 1 161 5 574 9 918 5
344 8 626 6 628 -1 1 -92 -62 -202 -140z"/>
<path d="M2254 1414 c3 -346 9 -760 12 -921 6 -282 7 -292 25 -279 10 7 100
79 199 161 l180 148 -1 456 c-1 251 -4 528 -8 616 l-6 159 -115 83 c-63 45
-155 110 -204 144 l-89 62 7 -629z"/>
</g>
</svg>
